<svg width="45" height="45" viewBox="0 0 45 45" fill="none" xmlns="http://www.w3.org/2000/svg">
<g id="user-circle">
<g id="Group">
<path id="Vector" d="M30.355 37.72L14.475 37.55C11.895 37.52 9.90499 35.33 10.215 32.85L11.655 17.04C11.915 14.92 14.235 13.46 16.435 13.46H28.725C30.955 13.46 33.355 15.1 33.585 17.25L34.945 33.25C35.215 35.75 32.945 37.75 30.355 37.72Z" fill="#F04F60"/>
<g id="Group_2">
<path id="Vector_2" d="M27.085 13.76H29.855C31.515 13.76 32.895 15.03 33.035 16.68L33.955 27.42" stroke="black" stroke-miterlimit="10"/>
<path id="Vector_3" d="M34.3049 31.51L34.5249 34.05C34.6849 35.91 33.2149 37.51 31.3549 37.51H13.1849C11.3049 37.51 9.83493 35.89 10.0149 34.01L11.6949 16.64C11.8549 15.01 13.2249 13.76 14.8649 13.76H17.4549" stroke="black" stroke-miterlimit="10"/>
</g>
<path id="Vector_4" d="M27.0249 13.76C27.0249 11.13 24.8949 9 22.2649 9C19.6349 9 17.5049 11.13 17.5049 13.76H27.0249Z" fill="#F04F60" stroke="black" stroke-miterlimit="10"/>
</g>
</g>
</svg>
