<svg width="46" height="45" viewBox="0 0 46 45" fill="none" xmlns="http://www.w3.org/2000/svg">
<path d="M14.32 18.19H9.37C8.75 18.19 8.25 17.69 8.25 17.07V12.12C8.25 11.5 8.75 11 9.37 11H14.32C14.94 11 15.44 11.5 15.44 12.12V17.07C15.44 17.69 14.94 18.19 14.32 18.19Z" fill="#F04F60" stroke="black" stroke-miterlimit="10"/>
<path d="M35.47 16.32H20.47C19.52 16.32 18.75 15.55 18.75 14.6C18.75 13.65 19.52 12.88 20.47 12.88H35.47C36.42 12.88 37.19 13.65 37.19 14.6C37.19 15.55 36.42 16.32 35.47 16.32Z" fill="#F04F60" stroke="black" stroke-miterlimit="10"/>
<path d="M14.32 35.36H9.37C8.75 35.36 8.25 34.86 8.25 34.24V29.29C8.25 28.67 8.75 28.17 9.37 28.17H14.32C14.94 28.17 15.44 28.67 15.44 29.29V34.24C15.44 34.86 14.94 35.36 14.32 35.36Z" fill="#F04F60" stroke="black" stroke-miterlimit="10"/>
<path d="M35.47 33.49H20.47C19.52 33.49 18.75 32.7201 18.75 31.7701C18.75 30.8201 19.52 30.05 20.47 30.05H35.47C36.42 30.05 37.19 30.8201 37.19 31.7701C37.19 32.7201 36.42 33.49 35.47 33.49Z" fill="#F04F60" stroke="black" stroke-miterlimit="10"/>
<path d="M30.86 26.8701H35.81C36.43 26.8701 36.93 26.3701 36.93 25.7501V20.8001C36.93 20.1801 36.43 19.6801 35.81 19.6801H30.86C30.24 19.6801 29.74 20.1801 29.74 20.8001V25.7501C29.75 26.3701 30.25 26.8701 30.86 26.8701Z" fill="#F04F60" stroke="black" stroke-miterlimit="10"/>
<path d="M9.72 25.0001H24.72C25.67 25.0001 26.44 24.2301 26.44 23.2801C26.44 22.3301 25.67 21.5601 24.72 21.5601H9.72C8.77 21.5601 8 22.3301 8 23.2801C8 24.2301 8.77 25.0001 9.72 25.0001Z" fill="#F04F60" stroke="black" stroke-miterlimit="10"/>
</svg>
