<svg width="46" height="45" viewBox="0 0 46 45" fill="none" xmlns="http://www.w3.org/2000/svg">
<g id="discover-circle">
<path id="Vector" d="M41.75 22.5C41.75 12.1447 33.3552 3.75 23 3.75C12.6447 3.75 4.25 12.1447 4.25 22.5C4.25 32.8552 12.6447 41.25 23 41.25C33.3552 41.25 41.75 32.8552 41.75 22.5Z" fill="#FF4C5E" stroke="#1C1C1C" stroke-width="2"/>
<path id="Vector_2" d="M23.7526 15.5587L29.2274 13.7337C30.8891 13.1798 31.7201 12.9029 32.1586 13.3415C32.5972 13.78 32.3203 14.6109 31.7662 16.2726L29.9413 21.7474C28.9974 24.579 28.5254 25.9948 27.5101 27.0101C26.4948 28.0254 25.079 28.4974 22.2474 29.4413L16.7726 31.2662C15.1109 31.8203 14.28 32.0972 13.8415 31.6586C13.4029 31.2201 13.6798 30.3891 14.2337 28.7274L16.0587 23.2526C17.0026 20.421 17.4745 19.0052 18.4898 17.9898C19.5052 16.9745 20.921 16.5026 23.7526 15.5587Z" fill="#FAFAFA" stroke="black" stroke-linecap="round" stroke-linejoin="round"/>
<path id="Vector_3" d="M23 22.5L22.988 22.512" stroke="#1C1C1C" stroke-width="2.5" stroke-linecap="round" stroke-linejoin="round"/>
</g>
</svg>
