<svg width="31" height="30" viewBox="0 0 31 30" fill="none" xmlns="http://www.w3.org/2000/svg">
<g id="discover-circle">
<path id="Vector" d="M28 15C28 8.09644 22.4035 2.5 15.5 2.5C8.59644 2.5 3 8.09644 3 15C3 21.9035 8.59644 27.5 15.5 27.5C22.4035 27.5 28 21.9035 28 15Z" stroke="#1C1C1C" stroke-width="2"/>
<path id="Vector_2" d="M16.0018 10.3725L19.6516 9.15581C20.7594 8.78655 21.3134 8.60191 21.6058 8.8943C21.8981 9.18669 21.7135 9.74059 21.3441 10.8484L20.1275 14.4983C19.4983 16.386 19.1836 17.3299 18.5068 18.0068C17.8299 18.6836 16.886 18.9983 14.9983 19.6275L11.3484 20.8441C10.2406 21.2135 9.68669 21.3981 9.3943 21.1058C9.10191 20.8134 9.28655 20.2594 9.65581 19.1516L10.8725 15.5018C11.5017 13.614 11.8163 12.6701 12.4932 11.9932C13.1701 11.3163 14.114 11.0017 16.0018 10.3725Z" stroke="#1C1C1C" stroke-width="1.5" stroke-linecap="round" stroke-linejoin="round"/>
<path id="Vector_3" d="M15.4999 15L15.4919 15.008" stroke="#1C1C1C" stroke-width="2.5" stroke-linecap="round" stroke-linejoin="round"/>
</g>
</svg>
