<svg width="30" height="30" viewBox="0 0 30 30" fill="none" xmlns="http://www.w3.org/2000/svg">
<g id="home-01">
<path id="Vector" d="M18.7502 21.25C17.7508 22.028 16.4381 22.5 15.0002 22.5C13.5625 22.5 12.2497 22.028 11.2502 21.25" stroke="#1C1C1C" stroke-width="2" stroke-linecap="round"/>
<path id="Vector_2" d="M2.93948 16.5169C2.49821 13.6452 2.27757 12.2095 2.82046 10.9367C3.36333 9.6639 4.56778 8.79304 6.97667 7.05132L8.77648 5.75C11.7731 3.58334 13.2715 2.5 15.0002 2.5C16.7291 2.5 18.2273 3.58334 21.224 5.75L23.0238 7.05132C25.4327 8.79304 26.6372 9.6639 27.1801 10.9367C27.723 12.2095 27.5023 13.6452 27.061 16.5169L26.6847 18.9655C26.0592 23.0361 25.7463 25.0715 24.2865 26.2858C22.8266 27.5 20.6923 27.5 16.4237 27.5H13.5767C9.30817 27.5 7.17388 27.5 5.71399 26.2858C4.25411 25.0715 3.94133 23.0361 3.31578 18.9655L2.93948 16.5169Z" stroke="#1C1C1C" stroke-width="2" stroke-linejoin="round"/>
</g>
</svg>
