<svg width="45" height="45" viewBox="0 0 45 45" fill="none" xmlns="http://www.w3.org/2000/svg">
<g id="home-01">
<path id="Vector" d="M4.4091 24.7753C3.74719 20.4679 3.41623 18.3143 4.23056 16.4051C5.04488 14.4959 6.85155 13.1896 10.4649 10.577L13.1646 8.625C17.6595 5.37501 19.9071 3.75 22.5002 3.75C25.0935 3.75 27.3409 5.37501 31.8358 8.625L34.5356 10.577C38.149 13.1896 39.9557 14.4959 40.77 16.4051C41.5843 18.3143 41.2534 20.4679 40.5913 24.7753L40.027 28.4483C39.0887 34.5542 38.6194 37.6073 36.4296 39.4286C34.2398 41.25 31.0384 41.25 24.6355 41.25H20.365C13.9621 41.25 10.7607 41.25 8.57087 39.4286C6.38104 37.6073 5.91188 34.5542 4.97355 28.4483L4.4091 24.7753Z" fill="#FF4C5E" stroke="#1C1C1C" stroke-width="2" stroke-linejoin="round"/>
<path id="Vector_2" d="M28.1252 31.875C26.6261 33.042 24.657 33.75 22.5002 33.75C20.3436 33.75 18.3744 33.042 16.8752 31.875" stroke="#FAFAFA" stroke-width="2" stroke-linecap="round"/>
</g>
</svg>
