<svg width="44" height="44" viewBox="0 0 44 44" fill="none" xmlns="http://www.w3.org/2000/svg">
<rect width="44" height="44" rx="22" fill="white"/>
<path d="M21.5996 15.5295L22 16.0647L22.4004 15.5295C23.3204 14.2997 24.7949 13.5 26.44 13.5C29.2315 13.5 31.5 15.7738 31.5 18.59C31.5 19.7256 31.3189 20.7737 31.0043 21.7461L31.0032 21.7493C30.249 24.136 28.7035 26.0596 27.0354 27.4933C25.365 28.9289 23.6004 29.8483 22.4589 30.2366L22.4589 30.2366L22.4536 30.2385C22.3537 30.2737 22.1893 30.3 22 30.3C21.8107 30.3 21.6463 30.2737 21.5464 30.2385L21.5464 30.2385L21.5411 30.2366C20.3996 29.8483 18.635 28.9289 16.9646 27.4933C15.2965 26.0596 13.751 24.136 12.9968 21.7493L12.9968 21.7493L12.9957 21.7461C12.6811 20.7737 12.5 19.7256 12.5 18.59C12.5 15.7738 14.7685 13.5 17.56 13.5C19.2051 13.5 20.6796 14.2997 21.5996 15.5295Z" stroke="#FF4C5E"/>
</svg>
